M48
METRIC,LZ,000.000
;FILE_FORMAT=3:3
;TYPE=PLATED
;Layer: PTH_Through
;EasyEDA v6.5.50, 2025-07-31 09:17:27
;a04e246fe33543dbb79078118b7d9401,9fc561ef3718428cb41126dab8e1c2a1,10
;Gerber Generator version 0.2
;Holesize 1 = 0.900 mm
T01C0.900
;Holesize 2 = 1.000 mm
T02C1.000
;Holesize 3 = 1.001 mm
T03C1.001
;Holesize 4 = 1.100 mm
T04C1.100
;Holesize 5 = 1.101 mm
T05C1.101
;Holesize 6 = 1.143 mm
T06C1.143
;Holesize 7 = 2.841 mm
T07C2.841
%
G05
G90
T01
X025146Y-050038
X025146Y-042418
T02
X038735Y-064643G85X038735Y-064643
X041235Y-064643G85X041235Y-064643
X043735Y-064643G85X043735Y-064643
T03
X057531Y-073289
X057531Y-070749
X057531Y-068209
X057531Y-065669
X057531Y-063129
X057531Y-060589
X057531Y-058049
X057531Y-040269
X057531Y-042809
X057531Y-045349
X057531Y-047889
X057531Y-050429
X009271Y-079893
X009271Y-077353
X009271Y-074813
X009271Y-072273
X009271Y-069733
X009271Y-067193
X009271Y-064653
X009271Y-062113
X009271Y-058049
X009271Y-055509
X009271Y-052969
X009271Y-040269
X009271Y-042809
X009271Y-045349
X009271Y-047889
X057531Y-052969
X009271Y-050429
X009271Y-082433
X009271Y-084973
X057531Y-075829
T04
X036592Y-042926G85X036592Y-042926
X039132Y-042926G85X039132Y-042926
X041672Y-042926G85X041672Y-042926
X044212Y-042926G85X044212Y-042926
X046752Y-042926G85X046752Y-042926
T05
X029146Y-060932
X021146Y-060932
X029146Y-054932
X021146Y-054932
T06
X037547Y-072789
X035007Y-072789
X032467Y-072789
X029927Y-072789
T07
X036835Y-057643G85X036835Y-057643
X045635Y-057643G85X045635Y-057643
M30
