G04 Layer: BottomSolderMaskLayer*
G04 EasyEDA v6.5.50, 2025-07-31 09:17:27*
G04 a04e246fe33543dbb79078118b7d9401,9fc561ef3718428cb41126dab8e1c2a1,10*
G04 Gerber Generator version 0.2*
G04 Scale: 100 percent, Rotated: No, Reflected: No *
G04 Dimensions in millimeters *
G04 leading zeros omitted , absolute positions ,4 integer and 5 decimal *
%FSLAX45Y45*%
%MOMM*%

%AMMACRO1*4,1,8,-0.7751,-0.8048,-0.8048,-0.7748,-0.8048,0.7751,-0.7751,0.8048,0.7748,0.8048,0.8048,0.7751,0.8048,-0.7748,0.7748,-0.8048,-0.7751,-0.8048,0*%
%AMMACRO2*4,1,8,-0.8461,-0.8758,-0.8758,-0.8458,-0.8758,0.8461,-0.8461,0.8758,0.8458,0.8758,0.8758,0.8461,0.8758,-0.8458,0.8458,-0.8758,-0.8461,-0.8758,0*%
%ADD10O,2.7031949999999996X2.0031963999999998*%
%ADD11MACRO1*%
%ADD12C,1.6096*%
%ADD13C,4.3617*%
%ADD14MACRO2*%
%ADD15C,1.7516*%
%ADD16C,2.1082*%
%ADD17C,1.9812*%
%ADD18C,1.9016*%
%ADD19C,0.0142*%

%LPD*%
D10*
G01*
X5753100Y-7328915D03*
G01*
X5753100Y-7074915D03*
G01*
X5753100Y-6820915D03*
G01*
X5753100Y-6566915D03*
G01*
X5753100Y-6312915D03*
G01*
X5753100Y-6058915D03*
G01*
X5753100Y-5804915D03*
G01*
X5753100Y-4026915D03*
G01*
X5753100Y-4280915D03*
G01*
X5753100Y-4534915D03*
G01*
X5753100Y-4788915D03*
G01*
X5753100Y-5042915D03*
G01*
X927100Y-7989315D03*
G01*
X927100Y-7735315D03*
G01*
X927100Y-7481315D03*
G01*
X927100Y-7227315D03*
G01*
X927100Y-6973315D03*
G01*
X927100Y-6719315D03*
G01*
X927100Y-6465315D03*
G01*
X927100Y-6211315D03*
G01*
X927100Y-5804915D03*
G01*
X927100Y-5550915D03*
G01*
X927100Y-5296915D03*
G01*
X927100Y-4026915D03*
G01*
X927100Y-4280915D03*
G01*
X927100Y-4534915D03*
G01*
X927100Y-4788915D03*
G01*
X5753100Y-5296915D03*
G01*
X927100Y-5042915D03*
G01*
X927100Y-8243315D03*
G01*
X927100Y-8497315D03*
G01*
X5753100Y-7582915D03*
D11*
G01*
X3873512Y-6464312D03*
D12*
G01*
X4123486Y-6464300D03*
G01*
X4373499Y-6464300D03*
D13*
G01*
X3683508Y-5764301D03*
G01*
X4563490Y-5764301D03*
D14*
G01*
X3659225Y-4292600D03*
D15*
G01*
X3913225Y-4292600D03*
G01*
X4167225Y-4292600D03*
G01*
X4421225Y-4292600D03*
G01*
X4675225Y-4292600D03*
D16*
G01*
X3754729Y-7278928D03*
G01*
X3500729Y-7278928D03*
G01*
X3246729Y-7278928D03*
G01*
X2992729Y-7278928D03*
D17*
G01*
X2514600Y-5003800D03*
G01*
X2514600Y-4241800D03*
D18*
G01*
X2914599Y-6093231D03*
G01*
X2114600Y-6093231D03*
G01*
X2914599Y-5493232D03*
G01*
X2114600Y-5493232D03*
M02*
