G04 Layer: TopSilkscreenLayer*
G04 EasyEDA v6.5.50, 2025-07-31 09:17:27*
G04 a04e246fe33543dbb79078118b7d9401,9fc561ef3718428cb41126dab8e1c2a1,10*
G04 Gerber Generator version 0.2*
G04 Scale: 100 percent, Rotated: No, Reflected: No *
G04 Dimensions in millimeters *
G04 leading zeros omitted , absolute positions ,4 integer and 5 decimal *
%FSLAX45Y45*%
%MOMM*%

%ADD10C,0.2032*%
%ADD11C,0.1520*%
%ADD12C,0.1524*%
%ADD13C,0.1999*%
%ADD14C,0.2540*%
%ADD15C,0.1001*%
%ADD16C,0.0160*%

%LPD*%
D10*
X4572000Y-7938515D02*
G01*
X4572000Y-8081771D01*
X4616958Y-7938515D02*
G01*
X4616958Y-8081771D01*
X4616958Y-7938515D02*
G01*
X4664709Y-7938515D01*
X4685284Y-7945373D01*
X4698745Y-7959089D01*
X4705604Y-7972552D01*
X4712461Y-7993126D01*
X4712461Y-8027162D01*
X4705604Y-8047736D01*
X4698745Y-8061197D01*
X4685284Y-8074913D01*
X4664709Y-8081771D01*
X4616958Y-8081771D01*
X4757420Y-7938515D02*
G01*
X4757420Y-8081771D01*
X4757420Y-7938515D02*
G01*
X4846065Y-7938515D01*
X4757420Y-8006842D02*
G01*
X4812029Y-8006842D01*
X4757420Y-8081771D02*
G01*
X4846065Y-8081771D01*
X4945634Y-7938515D02*
G01*
X4891024Y-8081771D01*
X4945634Y-7938515D02*
G01*
X5000243Y-8081771D01*
X4911597Y-8034020D02*
G01*
X4979670Y-8034020D01*
X5140706Y-7959089D02*
G01*
X5126990Y-7945373D01*
X5106670Y-7938515D01*
X5079238Y-7938515D01*
X5058918Y-7945373D01*
X5045202Y-7959089D01*
X5045202Y-7972552D01*
X5052059Y-7986268D01*
X5058918Y-7993126D01*
X5072379Y-7999984D01*
X5113274Y-8013445D01*
X5126990Y-8020304D01*
X5133847Y-8027162D01*
X5140706Y-8040878D01*
X5140706Y-8061197D01*
X5126990Y-8074913D01*
X5106670Y-8081771D01*
X5079238Y-8081771D01*
X5058918Y-8074913D01*
X5045202Y-8061197D01*
X5392927Y-7972552D02*
G01*
X5386070Y-7959089D01*
X5372354Y-7945373D01*
X5358891Y-7938515D01*
X5331459Y-7938515D01*
X5317997Y-7945373D01*
X5304281Y-7959089D01*
X5297424Y-7972552D01*
X5290565Y-7993126D01*
X5290565Y-8027162D01*
X5297424Y-8047736D01*
X5304281Y-8061197D01*
X5317997Y-8074913D01*
X5331459Y-8081771D01*
X5358891Y-8081771D01*
X5372354Y-8074913D01*
X5386070Y-8061197D01*
X5392927Y-8047736D01*
X5437886Y-7938515D02*
G01*
X5437886Y-8081771D01*
X5437886Y-8081771D02*
G01*
X5519674Y-8081771D01*
X5564631Y-7938515D02*
G01*
X5564631Y-8081771D01*
X5609843Y-7938515D02*
G01*
X5609843Y-8081771D01*
X5609843Y-7938515D02*
G01*
X5705093Y-8081771D01*
X5705093Y-7938515D02*
G01*
X5705093Y-8081771D01*
X5750306Y-7938515D02*
G01*
X5750306Y-8081771D01*
X5897372Y-7972552D02*
G01*
X5890513Y-7959089D01*
X5877052Y-7945373D01*
X5863336Y-7938515D01*
X5836158Y-7938515D01*
X5822441Y-7945373D01*
X5808725Y-7959089D01*
X5802122Y-7972552D01*
X5795263Y-7993126D01*
X5795263Y-8027162D01*
X5802122Y-8047736D01*
X5808725Y-8061197D01*
X5822441Y-8074913D01*
X5836158Y-8081771D01*
X5863336Y-8081771D01*
X5877052Y-8074913D01*
X5890513Y-8061197D01*
X5897372Y-8047736D01*
X2950806Y-7853464D02*
G01*
X2944202Y-7856766D01*
X2937852Y-7863116D01*
X2934804Y-7869466D01*
X2934804Y-7882166D01*
X2937852Y-7888516D01*
X2944202Y-7894866D01*
X2950806Y-7897914D01*
X2960204Y-7901216D01*
X2976206Y-7901216D01*
X2985604Y-7897914D01*
X2991954Y-7894866D01*
X2998304Y-7888516D01*
X3001606Y-7882166D01*
X3001606Y-7869466D01*
X2998304Y-7863116D01*
X2991954Y-7856766D01*
X2985604Y-7853464D01*
X2976206Y-7853464D01*
X2976206Y-7869466D02*
G01*
X2976206Y-7853464D01*
X2934804Y-7832382D02*
G01*
X3001606Y-7832382D01*
X2934804Y-7832382D02*
G01*
X3001606Y-7787932D01*
X2934804Y-7787932D02*
G01*
X3001606Y-7787932D01*
X2934804Y-7766850D02*
G01*
X3001606Y-7766850D01*
X2934804Y-7766850D02*
G01*
X2934804Y-7744752D01*
X2937852Y-7735100D01*
X2944202Y-7728750D01*
X2950806Y-7725702D01*
X2960204Y-7722400D01*
X2976206Y-7722400D01*
X2985604Y-7725702D01*
X2991954Y-7728750D01*
X2998304Y-7735100D01*
X3001606Y-7744752D01*
X3001606Y-7766850D01*
X3201504Y-7913916D02*
G01*
X3268306Y-7888516D01*
X3201504Y-7863116D02*
G01*
X3268306Y-7888516D01*
X3217506Y-7794282D02*
G01*
X3210902Y-7797584D01*
X3204552Y-7803934D01*
X3201504Y-7810284D01*
X3201504Y-7822984D01*
X3204552Y-7829334D01*
X3210902Y-7835684D01*
X3217506Y-7838732D01*
X3226904Y-7842034D01*
X3242906Y-7842034D01*
X3252304Y-7838732D01*
X3258654Y-7835684D01*
X3265004Y-7829334D01*
X3268306Y-7822984D01*
X3268306Y-7810284D01*
X3265004Y-7803934D01*
X3258654Y-7797584D01*
X3252304Y-7794282D01*
X3217506Y-7725448D02*
G01*
X3210902Y-7728750D01*
X3204552Y-7735100D01*
X3201504Y-7741450D01*
X3201504Y-7754150D01*
X3204552Y-7760500D01*
X3210902Y-7766850D01*
X3217506Y-7770152D01*
X3226904Y-7773200D01*
X3242906Y-7773200D01*
X3252304Y-7770152D01*
X3258654Y-7766850D01*
X3265004Y-7760500D01*
X3268306Y-7754150D01*
X3268306Y-7741450D01*
X3265004Y-7735100D01*
X3258654Y-7728750D01*
X3252304Y-7725448D01*
X3464902Y-7856766D02*
G01*
X3458552Y-7863116D01*
X3455504Y-7872514D01*
X3455504Y-7885214D01*
X3458552Y-7894866D01*
X3464902Y-7901216D01*
X3471506Y-7901216D01*
X3477856Y-7897914D01*
X3480904Y-7894866D01*
X3484206Y-7888516D01*
X3490556Y-7869466D01*
X3493604Y-7863116D01*
X3496906Y-7859814D01*
X3503256Y-7856766D01*
X3512654Y-7856766D01*
X3519004Y-7863116D01*
X3522306Y-7872514D01*
X3522306Y-7885214D01*
X3519004Y-7894866D01*
X3512654Y-7901216D01*
X3471506Y-7787932D02*
G01*
X3464902Y-7791234D01*
X3458552Y-7797584D01*
X3455504Y-7803934D01*
X3455504Y-7816634D01*
X3458552Y-7822984D01*
X3464902Y-7829334D01*
X3471506Y-7832382D01*
X3480904Y-7835684D01*
X3496906Y-7835684D01*
X3506304Y-7832382D01*
X3512654Y-7829334D01*
X3519004Y-7822984D01*
X3522306Y-7816634D01*
X3522306Y-7803934D01*
X3519004Y-7797584D01*
X3512654Y-7791234D01*
X3506304Y-7787932D01*
X3455504Y-7766850D02*
G01*
X3522306Y-7766850D01*
X3522306Y-7766850D02*
G01*
X3522306Y-7728750D01*
X3718902Y-7856766D02*
G01*
X3712552Y-7863116D01*
X3709504Y-7872514D01*
X3709504Y-7885214D01*
X3712552Y-7894866D01*
X3718902Y-7901216D01*
X3725506Y-7901216D01*
X3731856Y-7897914D01*
X3734904Y-7894866D01*
X3738206Y-7888516D01*
X3744556Y-7869466D01*
X3747604Y-7863116D01*
X3750906Y-7859814D01*
X3757256Y-7856766D01*
X3766654Y-7856766D01*
X3773004Y-7863116D01*
X3776306Y-7872514D01*
X3776306Y-7885214D01*
X3773004Y-7894866D01*
X3766654Y-7901216D01*
X3709504Y-7835684D02*
G01*
X3776306Y-7835684D01*
X3709504Y-7835684D02*
G01*
X3709504Y-7813332D01*
X3712552Y-7803934D01*
X3718902Y-7797584D01*
X3725506Y-7794282D01*
X3734904Y-7791234D01*
X3750906Y-7791234D01*
X3760304Y-7794282D01*
X3766654Y-7797584D01*
X3773004Y-7803934D01*
X3776306Y-7813332D01*
X3776306Y-7835684D01*
X3709504Y-7744752D02*
G01*
X3776306Y-7770152D01*
X3709504Y-7744752D02*
G01*
X3776306Y-7719098D01*
X3753954Y-7760500D02*
G01*
X3753954Y-7728750D01*
X3588613Y-4876805D02*
G01*
X3655415Y-4851405D01*
X3588613Y-4826005D02*
G01*
X3655415Y-4851405D01*
X3604615Y-4757171D02*
G01*
X3598011Y-4760473D01*
X3591661Y-4766823D01*
X3588613Y-4773173D01*
X3588613Y-4785873D01*
X3591661Y-4792223D01*
X3598011Y-4798573D01*
X3604615Y-4801621D01*
X3614013Y-4804923D01*
X3630015Y-4804923D01*
X3639413Y-4801621D01*
X3645763Y-4798573D01*
X3652113Y-4792223D01*
X3655415Y-4785873D01*
X3655415Y-4773173D01*
X3652113Y-4766823D01*
X3645763Y-4760473D01*
X3639413Y-4757171D01*
X3604615Y-4688337D02*
G01*
X3598011Y-4691639D01*
X3591661Y-4697989D01*
X3588613Y-4704339D01*
X3588613Y-4717039D01*
X3591661Y-4723389D01*
X3598011Y-4729739D01*
X3604615Y-4733041D01*
X3614013Y-4736089D01*
X3630015Y-4736089D01*
X3639413Y-4733041D01*
X3645763Y-4729739D01*
X3652113Y-4723389D01*
X3655415Y-4717039D01*
X3655415Y-4704339D01*
X3652113Y-4697989D01*
X3645763Y-4691639D01*
X3639413Y-4688337D01*
X3884015Y-4816353D02*
G01*
X3877411Y-4819655D01*
X3871061Y-4826005D01*
X3868013Y-4832355D01*
X3868013Y-4845055D01*
X3871061Y-4851405D01*
X3877411Y-4857755D01*
X3884015Y-4860803D01*
X3893413Y-4864105D01*
X3909415Y-4864105D01*
X3918813Y-4860803D01*
X3925163Y-4857755D01*
X3931513Y-4851405D01*
X3934815Y-4845055D01*
X3934815Y-4832355D01*
X3931513Y-4826005D01*
X3925163Y-4819655D01*
X3918813Y-4816353D01*
X3909415Y-4816353D01*
X3909415Y-4832355D02*
G01*
X3909415Y-4816353D01*
X3868013Y-4795271D02*
G01*
X3934815Y-4795271D01*
X3868013Y-4795271D02*
G01*
X3934815Y-4750821D01*
X3868013Y-4750821D02*
G01*
X3934815Y-4750821D01*
X3868013Y-4729739D02*
G01*
X3934815Y-4729739D01*
X3868013Y-4729739D02*
G01*
X3868013Y-4707641D01*
X3871061Y-4697989D01*
X3877411Y-4691639D01*
X3884015Y-4688591D01*
X3893413Y-4685289D01*
X3909415Y-4685289D01*
X3918813Y-4688591D01*
X3925163Y-4691639D01*
X3931513Y-4697989D01*
X3934815Y-4707641D01*
X3934815Y-4729739D01*
X4655413Y-4946655D02*
G01*
X4722215Y-4991105D01*
X4655413Y-4991105D02*
G01*
X4655413Y-4946655D01*
X4722215Y-4991105D02*
G01*
X4722215Y-4946655D01*
X4693513Y-4925573D02*
G01*
X4693513Y-4868169D01*
X4655413Y-4828291D02*
G01*
X4658461Y-4834641D01*
X4664811Y-4840991D01*
X4671415Y-4844039D01*
X4680813Y-4847341D01*
X4696815Y-4847341D01*
X4706213Y-4844039D01*
X4712563Y-4840991D01*
X4718913Y-4834641D01*
X4722215Y-4828291D01*
X4722215Y-4815591D01*
X4718913Y-4808987D01*
X4712563Y-4802637D01*
X4706213Y-4799589D01*
X4696815Y-4796287D01*
X4680813Y-4796287D01*
X4671415Y-4799589D01*
X4664811Y-4802637D01*
X4658461Y-4808987D01*
X4655413Y-4815591D01*
X4655413Y-4828291D01*
X4655413Y-4775459D02*
G01*
X4703165Y-4775459D01*
X4712563Y-4772157D01*
X4718913Y-4765807D01*
X4722215Y-4756409D01*
X4722215Y-4749805D01*
X4718913Y-4740407D01*
X4712563Y-4734057D01*
X4703165Y-4730755D01*
X4655413Y-4730755D01*
X4655413Y-4687575D02*
G01*
X4722215Y-4687575D01*
X4655413Y-4709927D02*
G01*
X4655413Y-4665223D01*
D11*
X2891116Y-6731800D02*
G01*
X2891116Y-6840766D01*
X2891116Y-6731800D02*
G01*
X2927438Y-6731800D01*
X2943186Y-6736880D01*
X2953346Y-6747294D01*
X2958680Y-6757708D01*
X2963760Y-6773456D01*
X2963760Y-6799364D01*
X2958680Y-6814858D01*
X2953346Y-6825272D01*
X2943186Y-6835686D01*
X2927438Y-6840766D01*
X2891116Y-6840766D01*
X2998050Y-6731800D02*
G01*
X3003384Y-6736880D01*
X3008464Y-6731800D01*
X3003384Y-6726466D01*
X2998050Y-6731800D01*
X3003384Y-6768122D02*
G01*
X3003384Y-6840766D01*
X3099904Y-6783616D02*
G01*
X3094824Y-6773456D01*
X3079076Y-6768122D01*
X3063582Y-6768122D01*
X3048088Y-6773456D01*
X3042754Y-6783616D01*
X3048088Y-6794030D01*
X3058502Y-6799364D01*
X3084410Y-6804444D01*
X3094824Y-6809778D01*
X3099904Y-6820192D01*
X3099904Y-6825272D01*
X3094824Y-6835686D01*
X3079076Y-6840766D01*
X3063582Y-6840766D01*
X3048088Y-6835686D01*
X3042754Y-6825272D01*
X3134194Y-6768122D02*
G01*
X3134194Y-6877342D01*
X3134194Y-6783616D02*
G01*
X3144608Y-6773456D01*
X3155022Y-6768122D01*
X3170516Y-6768122D01*
X3180930Y-6773456D01*
X3191344Y-6783616D01*
X3196678Y-6799364D01*
X3196678Y-6809778D01*
X3191344Y-6825272D01*
X3180930Y-6835686D01*
X3170516Y-6840766D01*
X3155022Y-6840766D01*
X3144608Y-6835686D01*
X3134194Y-6825272D01*
X3230968Y-6731800D02*
G01*
X3230968Y-6840766D01*
X3327488Y-6768122D02*
G01*
X3327488Y-6840766D01*
X3327488Y-6783616D02*
G01*
X3317074Y-6773456D01*
X3306660Y-6768122D01*
X3291166Y-6768122D01*
X3280752Y-6773456D01*
X3270338Y-6783616D01*
X3265258Y-6799364D01*
X3265258Y-6809778D01*
X3270338Y-6825272D01*
X3280752Y-6835686D01*
X3291166Y-6840766D01*
X3306660Y-6840766D01*
X3317074Y-6835686D01*
X3327488Y-6825272D01*
X3367112Y-6768122D02*
G01*
X3398100Y-6840766D01*
X3429342Y-6768122D02*
G01*
X3398100Y-6840766D01*
X3387686Y-6861594D01*
X3377526Y-6872008D01*
X3367112Y-6877342D01*
X3361778Y-6877342D01*
X3543300Y-3821689D02*
G01*
X3543300Y-3930655D01*
X3543300Y-3821689D02*
G01*
X3584956Y-3930655D01*
X3626358Y-3821689D02*
G01*
X3584956Y-3930655D01*
X3626358Y-3821689D02*
G01*
X3626358Y-3930655D01*
X3723131Y-3858011D02*
G01*
X3723131Y-3930655D01*
X3723131Y-3873505D02*
G01*
X3712718Y-3863345D01*
X3702304Y-3858011D01*
X3686809Y-3858011D01*
X3676395Y-3863345D01*
X3665981Y-3873505D01*
X3660647Y-3889253D01*
X3660647Y-3899667D01*
X3665981Y-3915161D01*
X3676395Y-3925575D01*
X3686809Y-3930655D01*
X3702304Y-3930655D01*
X3712718Y-3925575D01*
X3723131Y-3915161D01*
X3814572Y-3873505D02*
G01*
X3809238Y-3863345D01*
X3793743Y-3858011D01*
X3778250Y-3858011D01*
X3762502Y-3863345D01*
X3757422Y-3873505D01*
X3762502Y-3883919D01*
X3772915Y-3889253D01*
X3798824Y-3894333D01*
X3809238Y-3899667D01*
X3814572Y-3910081D01*
X3814572Y-3915161D01*
X3809238Y-3925575D01*
X3793743Y-3930655D01*
X3778250Y-3930655D01*
X3762502Y-3925575D01*
X3757422Y-3915161D01*
X3906011Y-3873505D02*
G01*
X3900677Y-3863345D01*
X3885184Y-3858011D01*
X3869690Y-3858011D01*
X3853941Y-3863345D01*
X3848861Y-3873505D01*
X3853941Y-3883919D01*
X3864356Y-3889253D01*
X3890263Y-3894333D01*
X3900677Y-3899667D01*
X3906011Y-3910081D01*
X3906011Y-3915161D01*
X3900677Y-3925575D01*
X3885184Y-3930655D01*
X3869690Y-3930655D01*
X3853941Y-3925575D01*
X3848861Y-3915161D01*
X4061713Y-3821689D02*
G01*
X4020311Y-3930655D01*
X4061713Y-3821689D02*
G01*
X4103370Y-3930655D01*
X4035806Y-3894333D02*
G01*
X4087875Y-3894333D01*
X4199890Y-3873505D02*
G01*
X4189729Y-3863345D01*
X4179315Y-3858011D01*
X4163568Y-3858011D01*
X4153154Y-3863345D01*
X4142740Y-3873505D01*
X4137659Y-3889253D01*
X4137659Y-3899667D01*
X4142740Y-3915161D01*
X4153154Y-3925575D01*
X4163568Y-3930655D01*
X4179315Y-3930655D01*
X4189729Y-3925575D01*
X4199890Y-3915161D01*
X4296663Y-3873505D02*
G01*
X4286250Y-3863345D01*
X4275836Y-3858011D01*
X4260341Y-3858011D01*
X4249927Y-3863345D01*
X4239513Y-3873505D01*
X4234179Y-3889253D01*
X4234179Y-3899667D01*
X4239513Y-3915161D01*
X4249927Y-3925575D01*
X4260341Y-3930655D01*
X4275836Y-3930655D01*
X4286250Y-3925575D01*
X4296663Y-3915161D01*
X4330954Y-3889253D02*
G01*
X4393184Y-3889253D01*
X4393184Y-3878839D01*
X4388104Y-3868425D01*
X4382770Y-3863345D01*
X4372609Y-3858011D01*
X4356861Y-3858011D01*
X4346447Y-3863345D01*
X4336034Y-3873505D01*
X4330954Y-3889253D01*
X4330954Y-3899667D01*
X4336034Y-3915161D01*
X4346447Y-3925575D01*
X4356861Y-3930655D01*
X4372609Y-3930655D01*
X4382770Y-3925575D01*
X4393184Y-3915161D01*
X4427474Y-3821689D02*
G01*
X4427474Y-3930655D01*
X4461763Y-3889253D02*
G01*
X4524247Y-3889253D01*
X4524247Y-3878839D01*
X4518913Y-3868425D01*
X4513834Y-3863345D01*
X4503420Y-3858011D01*
X4487925Y-3858011D01*
X4477511Y-3863345D01*
X4467097Y-3873505D01*
X4461763Y-3889253D01*
X4461763Y-3899667D01*
X4467097Y-3915161D01*
X4477511Y-3925575D01*
X4487925Y-3930655D01*
X4503420Y-3930655D01*
X4513834Y-3925575D01*
X4524247Y-3915161D01*
X4558538Y-3858011D02*
G01*
X4558538Y-3930655D01*
X4558538Y-3889253D02*
G01*
X4563618Y-3873505D01*
X4574031Y-3863345D01*
X4584445Y-3858011D01*
X4599940Y-3858011D01*
X4660391Y-3858011D02*
G01*
X4649977Y-3863345D01*
X4639563Y-3873505D01*
X4634229Y-3889253D01*
X4634229Y-3899667D01*
X4639563Y-3915161D01*
X4649977Y-3925575D01*
X4660391Y-3930655D01*
X4675886Y-3930655D01*
X4686300Y-3925575D01*
X4696713Y-3915161D01*
X4701793Y-3899667D01*
X4701793Y-3889253D01*
X4696713Y-3873505D01*
X4686300Y-3863345D01*
X4675886Y-3858011D01*
X4660391Y-3858011D01*
X4736084Y-3858011D02*
G01*
X4736084Y-3930655D01*
X4736084Y-3878839D02*
G01*
X4751831Y-3863345D01*
X4762245Y-3858011D01*
X4777740Y-3858011D01*
X4788154Y-3863345D01*
X4793234Y-3878839D01*
X4793234Y-3930655D01*
X4793234Y-3878839D02*
G01*
X4808981Y-3863345D01*
X4819395Y-3858011D01*
X4834890Y-3858011D01*
X4845304Y-3863345D01*
X4850384Y-3878839D01*
X4850384Y-3930655D01*
X4884674Y-3889253D02*
G01*
X4947158Y-3889253D01*
X4947158Y-3878839D01*
X4941824Y-3868425D01*
X4936743Y-3863345D01*
X4926329Y-3858011D01*
X4910836Y-3858011D01*
X4900422Y-3863345D01*
X4890008Y-3873505D01*
X4884674Y-3889253D01*
X4884674Y-3899667D01*
X4890008Y-3915161D01*
X4900422Y-3925575D01*
X4910836Y-3930655D01*
X4926329Y-3930655D01*
X4936743Y-3925575D01*
X4947158Y-3915161D01*
X4996941Y-3821689D02*
G01*
X4996941Y-3910081D01*
X5002275Y-3925575D01*
X5012690Y-3930655D01*
X5022850Y-3930655D01*
X4981447Y-3858011D02*
G01*
X5017770Y-3858011D01*
X5057140Y-3889253D02*
G01*
X5119624Y-3889253D01*
X5119624Y-3878839D01*
X5114290Y-3868425D01*
X5109209Y-3863345D01*
X5098795Y-3858011D01*
X5083302Y-3858011D01*
X5072888Y-3863345D01*
X5062474Y-3873505D01*
X5057140Y-3889253D01*
X5057140Y-3899667D01*
X5062474Y-3915161D01*
X5072888Y-3925575D01*
X5083302Y-3930655D01*
X5098795Y-3930655D01*
X5109209Y-3925575D01*
X5119624Y-3915161D01*
X5153913Y-3858011D02*
G01*
X5153913Y-3930655D01*
X5153913Y-3889253D02*
G01*
X5158993Y-3873505D01*
X5169408Y-3863345D01*
X5179822Y-3858011D01*
X5195570Y-3858011D01*
D12*
X3454400Y-10403331D02*
G01*
X3454400Y-10325354D01*
X3449320Y-10309860D01*
X3438906Y-10299445D01*
X3423158Y-10294365D01*
X3412743Y-10294365D01*
X3397250Y-10299445D01*
X3386836Y-10309860D01*
X3381756Y-10325354D01*
X3381756Y-10403331D01*
X3347465Y-10382504D02*
G01*
X3337052Y-10387837D01*
X3321304Y-10403331D01*
X3321304Y-10294365D01*
X1206754Y-8459724D02*
G01*
X1197610Y-8450834D01*
X1183894Y-8446262D01*
X1165605Y-8446262D01*
X1152144Y-8450834D01*
X1143000Y-8459724D01*
X1143000Y-8468868D01*
X1147571Y-8478012D01*
X1152144Y-8482584D01*
X1161287Y-8487155D01*
X1188465Y-8496300D01*
X1197610Y-8500618D01*
X1202181Y-8505189D01*
X1206754Y-8514334D01*
X1206754Y-8528050D01*
X1197610Y-8537194D01*
X1183894Y-8541765D01*
X1165605Y-8541765D01*
X1152144Y-8537194D01*
X1143000Y-8528050D01*
X1304797Y-8468868D02*
G01*
X1300226Y-8459724D01*
X1291081Y-8450834D01*
X1282192Y-8446262D01*
X1263904Y-8446262D01*
X1254760Y-8450834D01*
X1245615Y-8459724D01*
X1241297Y-8468868D01*
X1236726Y-8482584D01*
X1236726Y-8505189D01*
X1241297Y-8518905D01*
X1245615Y-8528050D01*
X1254760Y-8537194D01*
X1263904Y-8541765D01*
X1282192Y-8541765D01*
X1291081Y-8537194D01*
X1300226Y-8528050D01*
X1304797Y-8518905D01*
X1334770Y-8446262D02*
G01*
X1334770Y-8541765D01*
X1334770Y-8541765D02*
G01*
X1389379Y-8541765D01*
X1194054Y-8205723D02*
G01*
X1184910Y-8196834D01*
X1171194Y-8192262D01*
X1152905Y-8192262D01*
X1139444Y-8196834D01*
X1130300Y-8205723D01*
X1130300Y-8214868D01*
X1134871Y-8224012D01*
X1139444Y-8228584D01*
X1148587Y-8233155D01*
X1175765Y-8242300D01*
X1184910Y-8246618D01*
X1189481Y-8251189D01*
X1194054Y-8260334D01*
X1194054Y-8274050D01*
X1184910Y-8283194D01*
X1171194Y-8287765D01*
X1152905Y-8287765D01*
X1139444Y-8283194D01*
X1130300Y-8274050D01*
X1224026Y-8192262D02*
G01*
X1224026Y-8287765D01*
X1224026Y-8192262D02*
G01*
X1255776Y-8192262D01*
X1269492Y-8196834D01*
X1278381Y-8205723D01*
X1282954Y-8214868D01*
X1287526Y-8228584D01*
X1287526Y-8251189D01*
X1282954Y-8264905D01*
X1278381Y-8274050D01*
X1269492Y-8283194D01*
X1255776Y-8287765D01*
X1224026Y-8287765D01*
X1353820Y-8192262D02*
G01*
X1317497Y-8287765D01*
X1353820Y-8192262D02*
G01*
X1390395Y-8287765D01*
X1331213Y-8255762D02*
G01*
X1376679Y-8255762D01*
X1130300Y-7430262D02*
G01*
X1130300Y-7525765D01*
X1130300Y-7430262D02*
G01*
X1189481Y-7430262D01*
X1130300Y-7475728D02*
G01*
X1166621Y-7475728D01*
X1130300Y-7525765D02*
G01*
X1189481Y-7525765D01*
X1287526Y-7452868D02*
G01*
X1282954Y-7443723D01*
X1273810Y-7434834D01*
X1264920Y-7430262D01*
X1246631Y-7430262D01*
X1237487Y-7434834D01*
X1228597Y-7443723D01*
X1224026Y-7452868D01*
X1219454Y-7466584D01*
X1219454Y-7489189D01*
X1224026Y-7502905D01*
X1228597Y-7512050D01*
X1237487Y-7521194D01*
X1246631Y-7525765D01*
X1264920Y-7525765D01*
X1273810Y-7521194D01*
X1282954Y-7512050D01*
X1287526Y-7502905D01*
X1317497Y-7430262D02*
G01*
X1317497Y-7525765D01*
X1381252Y-7430262D02*
G01*
X1381252Y-7525765D01*
X1317497Y-7475728D02*
G01*
X1381252Y-7475728D01*
X1438402Y-7430262D02*
G01*
X1429512Y-7434834D01*
X1420368Y-7443723D01*
X1415795Y-7452868D01*
X1411223Y-7466584D01*
X1411223Y-7489189D01*
X1415795Y-7502905D01*
X1420368Y-7512050D01*
X1429512Y-7521194D01*
X1438402Y-7525765D01*
X1456689Y-7525765D01*
X1465834Y-7521194D01*
X1474723Y-7512050D01*
X1479295Y-7502905D01*
X1483868Y-7489189D01*
X1483868Y-7466584D01*
X1479295Y-7452868D01*
X1474723Y-7443723D01*
X1465834Y-7434834D01*
X1456689Y-7430262D01*
X1438402Y-7430262D01*
X1513839Y-7557515D02*
G01*
X1595628Y-7557515D01*
X1625854Y-7430262D02*
G01*
X1625854Y-7525765D01*
X1625854Y-7430262D02*
G01*
X1666747Y-7430262D01*
X1680210Y-7434834D01*
X1684781Y-7439405D01*
X1689354Y-7448295D01*
X1689354Y-7462012D01*
X1684781Y-7471155D01*
X1680210Y-7475728D01*
X1666747Y-7480300D01*
X1625854Y-7480300D01*
X1719326Y-7430262D02*
G01*
X1719326Y-7525765D01*
X1749297Y-7430262D02*
G01*
X1749297Y-7525765D01*
X1749297Y-7430262D02*
G01*
X1813052Y-7525765D01*
X1813052Y-7430262D02*
G01*
X1813052Y-7525765D01*
X1149350Y-7176262D02*
G01*
X1149350Y-7271765D01*
X1117600Y-7176262D02*
G01*
X1181354Y-7176262D01*
X1211326Y-7176262D02*
G01*
X1211326Y-7271765D01*
X1211326Y-7176262D02*
G01*
X1252220Y-7176262D01*
X1265681Y-7180834D01*
X1270254Y-7185405D01*
X1274826Y-7194295D01*
X1274826Y-7203439D01*
X1270254Y-7212584D01*
X1265681Y-7217155D01*
X1252220Y-7221728D01*
X1211326Y-7221728D01*
X1243076Y-7221728D02*
G01*
X1274826Y-7271765D01*
X1304797Y-7176262D02*
G01*
X1304797Y-7271765D01*
X1403095Y-7198868D02*
G01*
X1398523Y-7189723D01*
X1389379Y-7180834D01*
X1380236Y-7176262D01*
X1362202Y-7176262D01*
X1353057Y-7180834D01*
X1343913Y-7189723D01*
X1339342Y-7198868D01*
X1334770Y-7212584D01*
X1334770Y-7235189D01*
X1339342Y-7248905D01*
X1343913Y-7258050D01*
X1353057Y-7267194D01*
X1362202Y-7271765D01*
X1380236Y-7271765D01*
X1389379Y-7267194D01*
X1398523Y-7258050D01*
X1403095Y-7248905D01*
X1403095Y-7235189D01*
X1380236Y-7235189D02*
G01*
X1403095Y-7235189D01*
X1433068Y-7303515D02*
G01*
X1514855Y-7303515D01*
X1544828Y-7176262D02*
G01*
X1544828Y-7271765D01*
X1544828Y-7176262D02*
G01*
X1585721Y-7176262D01*
X1599437Y-7180834D01*
X1604010Y-7185405D01*
X1608581Y-7194295D01*
X1608581Y-7208012D01*
X1604010Y-7217155D01*
X1599437Y-7221728D01*
X1585721Y-7226300D01*
X1544828Y-7226300D01*
X1638554Y-7176262D02*
G01*
X1638554Y-7271765D01*
X1668526Y-7176262D02*
G01*
X1668526Y-7271765D01*
X1668526Y-7176262D02*
G01*
X1732026Y-7271765D01*
X1732026Y-7176262D02*
G01*
X1732026Y-7271765D01*
X1117600Y-6680962D02*
G01*
X1117600Y-6776465D01*
X1117600Y-6680962D02*
G01*
X1153921Y-6776465D01*
X1190244Y-6680962D02*
G01*
X1153921Y-6776465D01*
X1190244Y-6680962D02*
G01*
X1190244Y-6776465D01*
X1247647Y-6680962D02*
G01*
X1238504Y-6685534D01*
X1229360Y-6694423D01*
X1224787Y-6703568D01*
X1220215Y-6717284D01*
X1220215Y-6739889D01*
X1224787Y-6753605D01*
X1229360Y-6762750D01*
X1238504Y-6771894D01*
X1247647Y-6776465D01*
X1265681Y-6776465D01*
X1274826Y-6771894D01*
X1283970Y-6762750D01*
X1288542Y-6753605D01*
X1293113Y-6739889D01*
X1293113Y-6717284D01*
X1288542Y-6703568D01*
X1283970Y-6694423D01*
X1274826Y-6685534D01*
X1265681Y-6680962D01*
X1247647Y-6680962D01*
X1354836Y-6680962D02*
G01*
X1354836Y-6776465D01*
X1323086Y-6680962D02*
G01*
X1386586Y-6680962D01*
X1443989Y-6680962D02*
G01*
X1434845Y-6685534D01*
X1425702Y-6694423D01*
X1421129Y-6703568D01*
X1416812Y-6717284D01*
X1416812Y-6739889D01*
X1421129Y-6753605D01*
X1425702Y-6762750D01*
X1434845Y-6771894D01*
X1443989Y-6776465D01*
X1462023Y-6776465D01*
X1471168Y-6771894D01*
X1480312Y-6762750D01*
X1484884Y-6753605D01*
X1489455Y-6739889D01*
X1489455Y-6717284D01*
X1484884Y-6703568D01*
X1480312Y-6694423D01*
X1471168Y-6685534D01*
X1462023Y-6680962D01*
X1443989Y-6680962D01*
X1519428Y-6680962D02*
G01*
X1519428Y-6776465D01*
X1519428Y-6680962D02*
G01*
X1560321Y-6680962D01*
X1574037Y-6685534D01*
X1578610Y-6690105D01*
X1582928Y-6698995D01*
X1582928Y-6708139D01*
X1578610Y-6717284D01*
X1574037Y-6721855D01*
X1560321Y-6726428D01*
X1519428Y-6726428D01*
X1551178Y-6726428D02*
G01*
X1582928Y-6776465D01*
X1613154Y-6808215D02*
G01*
X1694942Y-6808215D01*
X1724913Y-6680962D02*
G01*
X1724913Y-6776465D01*
X1724913Y-6680962D02*
G01*
X1756663Y-6680962D01*
X1770379Y-6685534D01*
X1779523Y-6694423D01*
X1783842Y-6703568D01*
X1788413Y-6717284D01*
X1788413Y-6739889D01*
X1783842Y-6753605D01*
X1779523Y-6762750D01*
X1770379Y-6771894D01*
X1756663Y-6776465D01*
X1724913Y-6776465D01*
X1818386Y-6680962D02*
G01*
X1818386Y-6776465D01*
X1818386Y-6680962D02*
G01*
X1859534Y-6680962D01*
X1872995Y-6685534D01*
X1877568Y-6690105D01*
X1882139Y-6698995D01*
X1882139Y-6708139D01*
X1877568Y-6717284D01*
X1872995Y-6721855D01*
X1859534Y-6726428D01*
X1818386Y-6726428D01*
X1850389Y-6726428D02*
G01*
X1882139Y-6776465D01*
X1912112Y-6680962D02*
G01*
X1912112Y-6776465D01*
X1942084Y-6680962D02*
G01*
X1978406Y-6776465D01*
X2014981Y-6680962D02*
G01*
X1978406Y-6776465D01*
X2044954Y-6680962D02*
G01*
X2044954Y-6776465D01*
X2044954Y-6680962D02*
G01*
X2103881Y-6680962D01*
X2044954Y-6726428D02*
G01*
X2081275Y-6726428D01*
X2044954Y-6776465D02*
G01*
X2103881Y-6776465D01*
X2133854Y-6680962D02*
G01*
X2133854Y-6776465D01*
X2133854Y-6680962D02*
G01*
X2174747Y-6680962D01*
X2188463Y-6685534D01*
X2193036Y-6690105D01*
X2197608Y-6698995D01*
X2197608Y-6708139D01*
X2193036Y-6717284D01*
X2188463Y-6721855D01*
X2174747Y-6726428D01*
X2133854Y-6726428D01*
X2165858Y-6726428D02*
G01*
X2197608Y-6776465D01*
X2227579Y-6808215D02*
G01*
X2309368Y-6808215D01*
X2339340Y-6680962D02*
G01*
X2339340Y-6776465D01*
X2369311Y-6680962D02*
G01*
X2369311Y-6776465D01*
X2369311Y-6680962D02*
G01*
X2433065Y-6776465D01*
X2433065Y-6680962D02*
G01*
X2433065Y-6776465D01*
X2463038Y-6808215D02*
G01*
X2544825Y-6808215D01*
X2574797Y-6698995D02*
G01*
X2583941Y-6694423D01*
X2597658Y-6680962D01*
X2597658Y-6776465D01*
X1130300Y-5499862D02*
G01*
X1130300Y-5595365D01*
X1130300Y-5499862D02*
G01*
X1171194Y-5499862D01*
X1184910Y-5504434D01*
X1189481Y-5509005D01*
X1194054Y-5517895D01*
X1194054Y-5527039D01*
X1189481Y-5536184D01*
X1184910Y-5540755D01*
X1171194Y-5545328D01*
X1130300Y-5545328D02*
G01*
X1171194Y-5545328D01*
X1184910Y-5549900D01*
X1189481Y-5554218D01*
X1194054Y-5563362D01*
X1194054Y-5577078D01*
X1189481Y-5586221D01*
X1184910Y-5590794D01*
X1171194Y-5595365D01*
X1130300Y-5595365D01*
X1255776Y-5499862D02*
G01*
X1255776Y-5595365D01*
X1224026Y-5499862D02*
G01*
X1287526Y-5499862D01*
X1317497Y-5499862D02*
G01*
X1317497Y-5595365D01*
X1317497Y-5499862D02*
G01*
X1381252Y-5595365D01*
X1381252Y-5499862D02*
G01*
X1381252Y-5595365D01*
X1117600Y-4737862D02*
G01*
X1117600Y-4833365D01*
X1117600Y-4737862D02*
G01*
X1176781Y-4737862D01*
X1117600Y-4783328D02*
G01*
X1153921Y-4783328D01*
X1117600Y-4833365D02*
G01*
X1176781Y-4833365D01*
X1206754Y-4737862D02*
G01*
X1206754Y-4833365D01*
X1206754Y-4737862D02*
G01*
X1270254Y-4833365D01*
X1270254Y-4737862D02*
G01*
X1270254Y-4833365D01*
X1368552Y-4760468D02*
G01*
X1363979Y-4751323D01*
X1354836Y-4742434D01*
X1345692Y-4737862D01*
X1327657Y-4737862D01*
X1318513Y-4742434D01*
X1309370Y-4751323D01*
X1304797Y-4760468D01*
X1300226Y-4774184D01*
X1300226Y-4796789D01*
X1304797Y-4810505D01*
X1309370Y-4819650D01*
X1318513Y-4828794D01*
X1327657Y-4833365D01*
X1345692Y-4833365D01*
X1354836Y-4828794D01*
X1363979Y-4819650D01*
X1368552Y-4810505D01*
X1425702Y-4737862D02*
G01*
X1416812Y-4742434D01*
X1407668Y-4751323D01*
X1403095Y-4760468D01*
X1398523Y-4774184D01*
X1398523Y-4796789D01*
X1403095Y-4810505D01*
X1407668Y-4819650D01*
X1416812Y-4828794D01*
X1425702Y-4833365D01*
X1443989Y-4833365D01*
X1453134Y-4828794D01*
X1462023Y-4819650D01*
X1466595Y-4810505D01*
X1471168Y-4796789D01*
X1471168Y-4774184D01*
X1466595Y-4760468D01*
X1462023Y-4751323D01*
X1453134Y-4742434D01*
X1443989Y-4737862D01*
X1425702Y-4737862D01*
X1501139Y-4737862D02*
G01*
X1501139Y-4833365D01*
X1501139Y-4737862D02*
G01*
X1533144Y-4737862D01*
X1546605Y-4742434D01*
X1555750Y-4751323D01*
X1560321Y-4760468D01*
X1564894Y-4774184D01*
X1564894Y-4796789D01*
X1560321Y-4810505D01*
X1555750Y-4819650D01*
X1546605Y-4828794D01*
X1533144Y-4833365D01*
X1501139Y-4833365D01*
X1594865Y-4737862D02*
G01*
X1594865Y-4833365D01*
X1594865Y-4737862D02*
G01*
X1654047Y-4737862D01*
X1594865Y-4783328D02*
G01*
X1631187Y-4783328D01*
X1594865Y-4833365D02*
G01*
X1654047Y-4833365D01*
X1684020Y-4737862D02*
G01*
X1684020Y-4833365D01*
X1684020Y-4737862D02*
G01*
X1724913Y-4737862D01*
X1738629Y-4742434D01*
X1742947Y-4747005D01*
X1747520Y-4755895D01*
X1747520Y-4765039D01*
X1742947Y-4774184D01*
X1738629Y-4778755D01*
X1724913Y-4783328D01*
X1684020Y-4783328D01*
X1715770Y-4783328D02*
G01*
X1747520Y-4833365D01*
X1777492Y-4865115D02*
G01*
X1859534Y-4865115D01*
X1889505Y-4737862D02*
G01*
X1889505Y-4833365D01*
X1889505Y-4737862D02*
G01*
X1930400Y-4737862D01*
X1943861Y-4742434D01*
X1948434Y-4747005D01*
X1953006Y-4755895D01*
X1953006Y-4765039D01*
X1948434Y-4774184D01*
X1943861Y-4778755D01*
X1930400Y-4783328D01*
X1889505Y-4783328D02*
G01*
X1930400Y-4783328D01*
X1943861Y-4787900D01*
X1948434Y-4792218D01*
X1953006Y-4801362D01*
X1953006Y-4815078D01*
X1948434Y-4824221D01*
X1943861Y-4828794D01*
X1930400Y-4833365D01*
X1889505Y-4833365D01*
X1117600Y-4483862D02*
G01*
X1117600Y-4579365D01*
X1117600Y-4483862D02*
G01*
X1176781Y-4483862D01*
X1117600Y-4529328D02*
G01*
X1153921Y-4529328D01*
X1117600Y-4579365D02*
G01*
X1176781Y-4579365D01*
X1206754Y-4483862D02*
G01*
X1206754Y-4579365D01*
X1206754Y-4483862D02*
G01*
X1270254Y-4579365D01*
X1270254Y-4483862D02*
G01*
X1270254Y-4579365D01*
X1368552Y-4506468D02*
G01*
X1363979Y-4497323D01*
X1354836Y-4488434D01*
X1345692Y-4483862D01*
X1327657Y-4483862D01*
X1318513Y-4488434D01*
X1309370Y-4497323D01*
X1304797Y-4506468D01*
X1300226Y-4520184D01*
X1300226Y-4542789D01*
X1304797Y-4556505D01*
X1309370Y-4565650D01*
X1318513Y-4574794D01*
X1327657Y-4579365D01*
X1345692Y-4579365D01*
X1354836Y-4574794D01*
X1363979Y-4565650D01*
X1368552Y-4556505D01*
X1425702Y-4483862D02*
G01*
X1416812Y-4488434D01*
X1407668Y-4497323D01*
X1403095Y-4506468D01*
X1398523Y-4520184D01*
X1398523Y-4542789D01*
X1403095Y-4556505D01*
X1407668Y-4565650D01*
X1416812Y-4574794D01*
X1425702Y-4579365D01*
X1443989Y-4579365D01*
X1453134Y-4574794D01*
X1462023Y-4565650D01*
X1466595Y-4556505D01*
X1471168Y-4542789D01*
X1471168Y-4520184D01*
X1466595Y-4506468D01*
X1462023Y-4497323D01*
X1453134Y-4488434D01*
X1443989Y-4483862D01*
X1425702Y-4483862D01*
X1501139Y-4483862D02*
G01*
X1501139Y-4579365D01*
X1501139Y-4483862D02*
G01*
X1533144Y-4483862D01*
X1546605Y-4488434D01*
X1555750Y-4497323D01*
X1560321Y-4506468D01*
X1564894Y-4520184D01*
X1564894Y-4542789D01*
X1560321Y-4556505D01*
X1555750Y-4565650D01*
X1546605Y-4574794D01*
X1533144Y-4579365D01*
X1501139Y-4579365D01*
X1594865Y-4483862D02*
G01*
X1594865Y-4579365D01*
X1594865Y-4483862D02*
G01*
X1654047Y-4483862D01*
X1594865Y-4529328D02*
G01*
X1631187Y-4529328D01*
X1594865Y-4579365D02*
G01*
X1654047Y-4579365D01*
X1684020Y-4483862D02*
G01*
X1684020Y-4579365D01*
X1684020Y-4483862D02*
G01*
X1724913Y-4483862D01*
X1738629Y-4488434D01*
X1742947Y-4493005D01*
X1747520Y-4501895D01*
X1747520Y-4511039D01*
X1742947Y-4520184D01*
X1738629Y-4524755D01*
X1724913Y-4529328D01*
X1684020Y-4529328D01*
X1715770Y-4529328D02*
G01*
X1747520Y-4579365D01*
X1777492Y-4611115D02*
G01*
X1859534Y-4611115D01*
X1925828Y-4483862D02*
G01*
X1889505Y-4579365D01*
X1925828Y-4483862D02*
G01*
X1962150Y-4579365D01*
X1902968Y-4547362D02*
G01*
X1948434Y-4547362D01*
X812794Y-5939792D02*
G01*
X812794Y-6035296D01*
X812794Y-5939792D02*
G01*
X844544Y-5939792D01*
X858260Y-5944364D01*
X867404Y-5953508D01*
X871976Y-5962652D01*
X876548Y-5976114D01*
X876548Y-5998974D01*
X871976Y-6012690D01*
X867404Y-6021580D01*
X858260Y-6030724D01*
X844544Y-6035296D01*
X812794Y-6035296D01*
X906520Y-5939792D02*
G01*
X911092Y-5944364D01*
X915410Y-5939792D01*
X911092Y-5935220D01*
X906520Y-5939792D01*
X911092Y-5971796D02*
G01*
X911092Y-6035296D01*
X999992Y-5971796D02*
G01*
X999992Y-6044440D01*
X995420Y-6058156D01*
X991102Y-6062474D01*
X981958Y-6067046D01*
X968242Y-6067046D01*
X959098Y-6062474D01*
X999992Y-5985258D02*
G01*
X991102Y-5976114D01*
X981958Y-5971796D01*
X968242Y-5971796D01*
X959098Y-5976114D01*
X949954Y-5985258D01*
X945636Y-5998974D01*
X945636Y-6008118D01*
X949954Y-6021580D01*
X959098Y-6030724D01*
X968242Y-6035296D01*
X981958Y-6035296D01*
X991102Y-6030724D01*
X999992Y-6021580D01*
X1029964Y-5939792D02*
G01*
X1034536Y-5944364D01*
X1039108Y-5939792D01*
X1034536Y-5935220D01*
X1029964Y-5939792D01*
X1034536Y-5971796D02*
G01*
X1034536Y-6035296D01*
X1082796Y-5939792D02*
G01*
X1082796Y-6017008D01*
X1087368Y-6030724D01*
X1096512Y-6035296D01*
X1105402Y-6035296D01*
X1069080Y-5971796D02*
G01*
X1101084Y-5971796D01*
X1189984Y-5971796D02*
G01*
X1189984Y-6035296D01*
X1189984Y-5985258D02*
G01*
X1181094Y-5976114D01*
X1171950Y-5971796D01*
X1158234Y-5971796D01*
X1149090Y-5976114D01*
X1139946Y-5985258D01*
X1135628Y-5998974D01*
X1135628Y-6008118D01*
X1139946Y-6021580D01*
X1149090Y-6030724D01*
X1158234Y-6035296D01*
X1171950Y-6035296D01*
X1181094Y-6030724D01*
X1189984Y-6021580D01*
X1219956Y-5939792D02*
G01*
X1219956Y-6035296D01*
X1320032Y-5939792D02*
G01*
X1320032Y-6035296D01*
X1431792Y-5921758D02*
G01*
X1350004Y-6067046D01*
X1489196Y-5939792D02*
G01*
X1480052Y-5944364D01*
X1470908Y-5953508D01*
X1466336Y-5962652D01*
X1461764Y-5976114D01*
X1461764Y-5998974D01*
X1466336Y-6012690D01*
X1470908Y-6021580D01*
X1480052Y-6030724D01*
X1489196Y-6035296D01*
X1507230Y-6035296D01*
X1516374Y-6030724D01*
X1525518Y-6021580D01*
X1530090Y-6012690D01*
X1534662Y-5998974D01*
X1534662Y-5976114D01*
X1530090Y-5962652D01*
X1525518Y-5953508D01*
X1516374Y-5944364D01*
X1507230Y-5939792D01*
X1489196Y-5939792D01*
X5241543Y-6765289D02*
G01*
X5291581Y-6765289D01*
X5264150Y-6801612D01*
X5277865Y-6801612D01*
X5287009Y-6806184D01*
X5291581Y-6810755D01*
X5296154Y-6824471D01*
X5296154Y-6833615D01*
X5291581Y-6847078D01*
X5282438Y-6856221D01*
X5268722Y-6860794D01*
X5255006Y-6860794D01*
X5241543Y-6856221D01*
X5236972Y-6851650D01*
X5232400Y-6842505D01*
X5330697Y-6838187D02*
G01*
X5326125Y-6842505D01*
X5330697Y-6847078D01*
X5335015Y-6842505D01*
X5330697Y-6838187D01*
X5374131Y-6765289D02*
G01*
X5424170Y-6765289D01*
X5396991Y-6801612D01*
X5410708Y-6801612D01*
X5419597Y-6806184D01*
X5424170Y-6810755D01*
X5428741Y-6824471D01*
X5428741Y-6833615D01*
X5424170Y-6847078D01*
X5415025Y-6856221D01*
X5401563Y-6860794D01*
X5387847Y-6860794D01*
X5374131Y-6856221D01*
X5369559Y-6851650D01*
X5365241Y-6842505D01*
X5458713Y-6765289D02*
G01*
X5495036Y-6860794D01*
X5531611Y-6765289D02*
G01*
X5495036Y-6860794D01*
X5414009Y-6511289D02*
G01*
X5368543Y-6511289D01*
X5363972Y-6552184D01*
X5368543Y-6547612D01*
X5382006Y-6543294D01*
X5395722Y-6543294D01*
X5409438Y-6547612D01*
X5418581Y-6556755D01*
X5423154Y-6570471D01*
X5423154Y-6579615D01*
X5418581Y-6593078D01*
X5409438Y-6602221D01*
X5395722Y-6606794D01*
X5382006Y-6606794D01*
X5368543Y-6602221D01*
X5363972Y-6597650D01*
X5359400Y-6588505D01*
X5453125Y-6511289D02*
G01*
X5489447Y-6606794D01*
X5525770Y-6511289D02*
G01*
X5489447Y-6606794D01*
X5351272Y-6292850D02*
G01*
X5346954Y-6283705D01*
X5337809Y-6274562D01*
X5328665Y-6269989D01*
X5310377Y-6269989D01*
X5301488Y-6274562D01*
X5292343Y-6283705D01*
X5287772Y-6292850D01*
X5283200Y-6306312D01*
X5283200Y-6329171D01*
X5287772Y-6342887D01*
X5292343Y-6351778D01*
X5301488Y-6360921D01*
X5310377Y-6365494D01*
X5328665Y-6365494D01*
X5337809Y-6360921D01*
X5346954Y-6351778D01*
X5351272Y-6342887D01*
X5351272Y-6329171D01*
X5328665Y-6329171D02*
G01*
X5351272Y-6329171D01*
X5381497Y-6269989D02*
G01*
X5381497Y-6365494D01*
X5381497Y-6269989D02*
G01*
X5444997Y-6365494D01*
X5444997Y-6269989D02*
G01*
X5444997Y-6365494D01*
X5474970Y-6269989D02*
G01*
X5474970Y-6365494D01*
X5474970Y-6269989D02*
G01*
X5506720Y-6269989D01*
X5520436Y-6274562D01*
X5529579Y-6283705D01*
X5534152Y-6292850D01*
X5538724Y-6306312D01*
X5538724Y-6329171D01*
X5534152Y-6342887D01*
X5529579Y-6351778D01*
X5520436Y-6360921D01*
X5506720Y-6365494D01*
X5474970Y-6365494D01*
X5321300Y-5749289D02*
G01*
X5357622Y-5844794D01*
X5393943Y-5749289D02*
G01*
X5357622Y-5844794D01*
X5423915Y-5749289D02*
G01*
X5423915Y-5844794D01*
X5454141Y-5749289D02*
G01*
X5454141Y-5844794D01*
X5454141Y-5749289D02*
G01*
X5517641Y-5844794D01*
X5517641Y-5749289D02*
G01*
X5517641Y-5844794D01*
X5268722Y-5482587D02*
G01*
X5232400Y-5578091D01*
X5268722Y-5482587D02*
G01*
X5305043Y-5578091D01*
X5246115Y-5546341D02*
G01*
X5291581Y-5546341D01*
X5335015Y-5514591D02*
G01*
X5335015Y-5578091D01*
X5335015Y-5532625D02*
G01*
X5348731Y-5518909D01*
X5357875Y-5514591D01*
X5371591Y-5514591D01*
X5380481Y-5518909D01*
X5385054Y-5532625D01*
X5385054Y-5578091D01*
X5469636Y-5514591D02*
G01*
X5469636Y-5578091D01*
X5469636Y-5528053D02*
G01*
X5460491Y-5518909D01*
X5451602Y-5514591D01*
X5437886Y-5514591D01*
X5428741Y-5518909D01*
X5419597Y-5528053D01*
X5415025Y-5541769D01*
X5415025Y-5550913D01*
X5419597Y-5564375D01*
X5428741Y-5573519D01*
X5437886Y-5578091D01*
X5451602Y-5578091D01*
X5460491Y-5573519D01*
X5469636Y-5564375D01*
X5499608Y-5482587D02*
G01*
X5499608Y-5578091D01*
X5552440Y-5514591D02*
G01*
X5543295Y-5518909D01*
X5534152Y-5528053D01*
X5529579Y-5541769D01*
X5529579Y-5550913D01*
X5534152Y-5564375D01*
X5543295Y-5573519D01*
X5552440Y-5578091D01*
X5566156Y-5578091D01*
X5575045Y-5573519D01*
X5584190Y-5564375D01*
X5588761Y-5550913D01*
X5588761Y-5541769D01*
X5584190Y-5528053D01*
X5575045Y-5518909D01*
X5566156Y-5514591D01*
X5552440Y-5514591D01*
X5673343Y-5514591D02*
G01*
X5673343Y-5587235D01*
X5668772Y-5600951D01*
X5664200Y-5605269D01*
X5655056Y-5609841D01*
X5641593Y-5609841D01*
X5632450Y-5605269D01*
X5673343Y-5528053D02*
G01*
X5664200Y-5518909D01*
X5655056Y-5514591D01*
X5641593Y-5514591D01*
X5632450Y-5518909D01*
X5623306Y-5528053D01*
X5618734Y-5541769D01*
X5618734Y-5550913D01*
X5623306Y-5564375D01*
X5632450Y-5573519D01*
X5641593Y-5578091D01*
X5655056Y-5578091D01*
X5664200Y-5573519D01*
X5673343Y-5564375D01*
X5773420Y-5482587D02*
G01*
X5773420Y-5578091D01*
X5803391Y-5514591D02*
G01*
X5803391Y-5578091D01*
X5803391Y-5532625D02*
G01*
X5816854Y-5518909D01*
X5825997Y-5514591D01*
X5839713Y-5514591D01*
X5848858Y-5518909D01*
X5853429Y-5532625D01*
X5853429Y-5578091D01*
X5421124Y-5253989D02*
G01*
X5384802Y-5349494D01*
X5421124Y-5253989D02*
G01*
X5457446Y-5349494D01*
X5398518Y-5317744D02*
G01*
X5443984Y-5317744D01*
X5514850Y-5253989D02*
G01*
X5501134Y-5258562D01*
X5491990Y-5272278D01*
X5487418Y-5294884D01*
X5487418Y-5308600D01*
X5491990Y-5331205D01*
X5501134Y-5344921D01*
X5514850Y-5349494D01*
X5523994Y-5349494D01*
X5537456Y-5344921D01*
X5546600Y-5331205D01*
X5551172Y-5308600D01*
X5551172Y-5294884D01*
X5546600Y-5272278D01*
X5537456Y-5258562D01*
X5523994Y-5253989D01*
X5514850Y-5253989D01*
X5446524Y-4987289D02*
G01*
X5410202Y-5082794D01*
X5446524Y-4987289D02*
G01*
X5482846Y-5082794D01*
X5423918Y-5051044D02*
G01*
X5469384Y-5051044D01*
X5512818Y-5005578D02*
G01*
X5521962Y-5001005D01*
X5535678Y-4987289D01*
X5535678Y-5082794D01*
X5421124Y-4745989D02*
G01*
X5384802Y-4841494D01*
X5421124Y-4745989D02*
G01*
X5457446Y-4841494D01*
X5398518Y-4809744D02*
G01*
X5443984Y-4809744D01*
X5491990Y-4768850D02*
G01*
X5491990Y-4764278D01*
X5496562Y-4755134D01*
X5501134Y-4750562D01*
X5510278Y-4745989D01*
X5528312Y-4745989D01*
X5537456Y-4750562D01*
X5542028Y-4755134D01*
X5546600Y-4764278D01*
X5546600Y-4773421D01*
X5542028Y-4782312D01*
X5532884Y-4796028D01*
X5487418Y-4841494D01*
X5551172Y-4841494D01*
X5351272Y-6038850D02*
G01*
X5346954Y-6029705D01*
X5337809Y-6020562D01*
X5328665Y-6015989D01*
X5310377Y-6015989D01*
X5301488Y-6020562D01*
X5292343Y-6029705D01*
X5287772Y-6038850D01*
X5283200Y-6052312D01*
X5283200Y-6075171D01*
X5287772Y-6088887D01*
X5292343Y-6097778D01*
X5301488Y-6106921D01*
X5310377Y-6111494D01*
X5328665Y-6111494D01*
X5337809Y-6106921D01*
X5346954Y-6097778D01*
X5351272Y-6088887D01*
X5351272Y-6075171D01*
X5328665Y-6075171D02*
G01*
X5351272Y-6075171D01*
X5381497Y-6015989D02*
G01*
X5381497Y-6111494D01*
X5381497Y-6015989D02*
G01*
X5444997Y-6111494D01*
X5444997Y-6015989D02*
G01*
X5444997Y-6111494D01*
X5474970Y-6015989D02*
G01*
X5474970Y-6111494D01*
X5474970Y-6015989D02*
G01*
X5506720Y-6015989D01*
X5520436Y-6020562D01*
X5529579Y-6029705D01*
X5534152Y-6038850D01*
X5538724Y-6052312D01*
X5538724Y-6075171D01*
X5534152Y-6088887D01*
X5529579Y-6097778D01*
X5520436Y-6106921D01*
X5506720Y-6111494D01*
X5474970Y-6111494D01*
X1198371Y-7706868D02*
G01*
X1194054Y-7697723D01*
X1184910Y-7688834D01*
X1175765Y-7684262D01*
X1157478Y-7684262D01*
X1148587Y-7688834D01*
X1139444Y-7697723D01*
X1134871Y-7706868D01*
X1130300Y-7720584D01*
X1130300Y-7743189D01*
X1134871Y-7756905D01*
X1139444Y-7766050D01*
X1148587Y-7775194D01*
X1157478Y-7779765D01*
X1175765Y-7779765D01*
X1184910Y-7775194D01*
X1194054Y-7766050D01*
X1198371Y-7756905D01*
X1198371Y-7743189D01*
X1175765Y-7743189D02*
G01*
X1198371Y-7743189D01*
X1228597Y-7684262D02*
G01*
X1228597Y-7779765D01*
X1228597Y-7684262D02*
G01*
X1292097Y-7779765D01*
X1292097Y-7684262D02*
G01*
X1292097Y-7779765D01*
X1322070Y-7684262D02*
G01*
X1322070Y-7779765D01*
X1322070Y-7684262D02*
G01*
X1353820Y-7684262D01*
X1367536Y-7688834D01*
X1376679Y-7697723D01*
X1381252Y-7706868D01*
X1385823Y-7720584D01*
X1385823Y-7743189D01*
X1381252Y-7756905D01*
X1376679Y-7766050D01*
X1367536Y-7775194D01*
X1353820Y-7779765D01*
X1322070Y-7779765D01*
X4051300Y-4951984D02*
G01*
X4092956Y-5060950D01*
X4134358Y-4951984D02*
G01*
X4092956Y-5060950D01*
X4168647Y-4951984D02*
G01*
X4168647Y-5060950D01*
X4168647Y-4951984D02*
G01*
X4215384Y-4951984D01*
X4231131Y-4957063D01*
X4236211Y-4962397D01*
X4241545Y-4972812D01*
X4241545Y-4983226D01*
X4236211Y-4993639D01*
X4231131Y-4998720D01*
X4215384Y-5003800D01*
X4168647Y-5003800D01*
X4204970Y-5003800D02*
G01*
X4241545Y-5060950D01*
X4275836Y-4972812D02*
G01*
X4286250Y-4967478D01*
X4301743Y-4951984D01*
X4301743Y-5060950D01*
X4943195Y-4164589D02*
G01*
X4943195Y-4247647D01*
X4937861Y-4263395D01*
X4932781Y-4268475D01*
X4922367Y-4273555D01*
X4911953Y-4273555D01*
X4901539Y-4268475D01*
X4896205Y-4263395D01*
X4891125Y-4247647D01*
X4891125Y-4237233D01*
X4977485Y-4185417D02*
G01*
X4987645Y-4180083D01*
X5003393Y-4164589D01*
X5003393Y-4273555D01*
D11*
X3760480Y-6729973D02*
G01*
X3760480Y-6813031D01*
X3755146Y-6828779D01*
X3750066Y-6833859D01*
X3739652Y-6838939D01*
X3729238Y-6838939D01*
X3718824Y-6833859D01*
X3713490Y-6828779D01*
X3708410Y-6813031D01*
X3708410Y-6802617D01*
X3799850Y-6755881D02*
G01*
X3799850Y-6750801D01*
X3804930Y-6740387D01*
X3810264Y-6735053D01*
X3820678Y-6729973D01*
X3841506Y-6729973D01*
X3851920Y-6735053D01*
X3857000Y-6740387D01*
X3862080Y-6750801D01*
X3862080Y-6761215D01*
X3857000Y-6771629D01*
X3846586Y-6787123D01*
X3794770Y-6838939D01*
X3867414Y-6838939D01*
D12*
X2209800Y-4545584D02*
G01*
X2209800Y-4654550D01*
X2209800Y-4545584D02*
G01*
X2256536Y-4545584D01*
X2272029Y-4550663D01*
X2277363Y-4555997D01*
X2282443Y-4566412D01*
X2282443Y-4576826D01*
X2277363Y-4587239D01*
X2272029Y-4592320D01*
X2256536Y-4597400D01*
X2209800Y-4597400D01*
X2246122Y-4597400D02*
G01*
X2282443Y-4654550D01*
X2316734Y-4566412D02*
G01*
X2327147Y-4561078D01*
X2342895Y-4545584D01*
X2342895Y-4654550D01*
X2460243Y-5198110D02*
G01*
X2449829Y-5187695D01*
X2434336Y-5182615D01*
X2413508Y-5182615D01*
X2398013Y-5187695D01*
X2387600Y-5198110D01*
X2387600Y-5208523D01*
X2392679Y-5218937D01*
X2398013Y-5224271D01*
X2408427Y-5229352D01*
X2439670Y-5239765D01*
X2449829Y-5244845D01*
X2455163Y-5250179D01*
X2460243Y-5260594D01*
X2460243Y-5276087D01*
X2449829Y-5286502D01*
X2434336Y-5291581D01*
X2413508Y-5291581D01*
X2398013Y-5286502D01*
X2387600Y-5276087D01*
X2494534Y-5182615D02*
G01*
X2520695Y-5291581D01*
X2546604Y-5182615D02*
G01*
X2520695Y-5291581D01*
X2546604Y-5182615D02*
G01*
X2572511Y-5291581D01*
X2598420Y-5182615D02*
G01*
X2572511Y-5291581D01*
X2632709Y-5203444D02*
G01*
X2643124Y-5198110D01*
X2658872Y-5182615D01*
X2658872Y-5291581D01*
D13*
X3623513Y-6019292D02*
G01*
X3623513Y-6414287D01*
X3743502Y-6414287D01*
X4503496Y-6414287D02*
G01*
X4623485Y-6414287D01*
X4623485Y-6019292D01*
X4623485Y-5499303D02*
G01*
X4623485Y-5214289D01*
X3623513Y-5214289D01*
X3623513Y-5499303D01*
X3659225Y-4580615D02*
G01*
X4802225Y-4580615D01*
X4802225Y-4000606D01*
X3532225Y-4000606D01*
X3532225Y-4292605D01*
D14*
X3881716Y-6948716D02*
G01*
X3881716Y-7609116D01*
X2865716Y-7609116D01*
X2865716Y-6948716D01*
X3881716Y-6948716D01*
X3754716Y-7507516D02*
G01*
X3754716Y-7609116D01*
X2992716Y-7609116D01*
X2992716Y-7507516D01*
X3754716Y-7507516D01*
X2514600Y-4876800D02*
G01*
X2514600Y-4902200D01*
X2514600Y-4368800D02*
G01*
X2514600Y-4343400D01*
X2514600Y-4876800D02*
G01*
X2438400Y-4876800D01*
X2590800Y-4876800D02*
G01*
X2514600Y-4876800D01*
X2590800Y-4368800D02*
G01*
X2590800Y-4876800D01*
X2514600Y-4368800D02*
G01*
X2590800Y-4368800D01*
X2438400Y-4368800D02*
G01*
X2514600Y-4368800D01*
X2438400Y-4876800D02*
G01*
X2438400Y-4368800D01*
X2645300Y-6188232D02*
G01*
X2645300Y-6161531D01*
X2730500Y-6161531D01*
X2730500Y-6188232D01*
X2325260Y-6188232D02*
G01*
X2325260Y-6161531D01*
X2400300Y-6161531D01*
X2400300Y-6188232D01*
X2634414Y-5398234D02*
G01*
X2634414Y-5424931D01*
X2730500Y-5424931D01*
X2730500Y-5398234D01*
X2322357Y-5398234D02*
G01*
X2322357Y-5424931D01*
X2400300Y-5424931D01*
X2400300Y-5398234D01*
X2119602Y-5980229D02*
G01*
X2119602Y-5606234D01*
X2853418Y-6188232D02*
G01*
X2175781Y-6188232D01*
X2909600Y-5980229D02*
G01*
X2909600Y-5606234D01*
X2175786Y-5398234D02*
G01*
X2853413Y-5398234D01*
D15*
G75*
G01*
X3873500Y-6594297D02*
G03*
X3873500Y-6584290I0J5004D01*
G75*
G01*
X3873500Y-6584290D02*
G03*
X3873500Y-6594297I0J-5003D01*
G75*
G01*
X3873500Y-6594297D02*
G03*
X3873500Y-6584290I0J5004D01*
D14*
G75*
G01
X2331796Y-5513832D02*
G03X2331796Y-5513832I-45796J0D01*
M02*
